<svg id="Layer_1" data-name="Layer 1" xmlns="http://www.w3.org/2000/svg" viewBox="0 0 1000.17 1000.17"><defs><style>.cls-1{fill:#fdfdfd;}.cls-2{fill:#26aadf;}.cls-3{fill:#fefefe;}</style></defs><rect class="cls-1" width="1000.17" height="1000.17" rx="103.65"/><path class="cls-2" d="M192.47,346.13c-25,0-49.93-.36-74.88.08-38.83.7-73.82-27.57-78.7-69.47a81,81,0,0,1-.25-9.48c0-50,.4-99.95-.14-149.92-.41-38.8,27.42-73.92,69.32-78.88a89.24,89.24,0,0,1,10.48-.26c49.42,0,98.85.48,148.26-.17,39.71-.51,74.49,27.84,79.43,69.29a76.94,76.94,0,0,1,.27,9q0,75.7,0,151.41c-.05,41-28.72,73.23-69.42,78.16a83,83,0,0,1-10,.24Q229.67,346.15,192.47,346.13Z"/><path class="cls-2" d="M807.65,346.13c-25,0-49.93-.35-74.89.08-38.88.66-73.79-27.73-78.61-69.57a83.19,83.19,0,0,1-.23-9.48c0-50,.38-100-.13-149.92-.4-38.85,27.56-73.89,69.41-78.79a85.06,85.06,0,0,1,10-.25c49.59,0,99.18.46,148.76-.16,39.73-.5,74.46,27.95,79.33,69.39a89.18,89.18,0,0,1,.27,10.48c0,49.47-.49,99,.16,148.41.52,39.75-27.78,74.57-69.2,79.52a87.18,87.18,0,0,1-10,.28Q845.09,346.15,807.65,346.13Z"/><path class="cls-2" d="M346.27,808.56c0,24.82-.34,49.64.07,74.45a77.72,77.72,0,0,1-69.42,78.75,83.19,83.19,0,0,1-9.48.24c-49.92,0-99.84-.39-149.76.14-38.78.41-73.84-27.49-78.78-69.42a91.51,91.51,0,0,1-.26-10.48c0-49.47.49-99-.17-148.42-.52-39.26,27.39-74.45,69.26-79.47a79,79,0,0,1,9-.27q75.63,0,151.26,0c40.92,0,73.2,28.83,78.06,69.53a85.07,85.07,0,0,1,.23,10Q346.28,771.09,346.27,808.56Z"/><path d="M543.93,124a20.2,20.2,0,0,1-19.7-19.81c0-10.79,9.46-20.12,20.16-19.84S564,93.87,563.84,104.4,554.5,124.08,543.93,124Z"/><path d="M412.19,168a20.19,20.19,0,0,1-19.8-19.7c-.1-10.75,9.34-20.14,20.05-19.95s19.66,9.38,19.56,19.95A20.2,20.2,0,0,1,412.19,168Z"/><path d="M500.1,128.34a20.2,20.2,0,0,1,19.8,19.72c.08,10.75-9.37,20.14-20.07,19.93s-19.66-9.4-19.55-20A20.2,20.2,0,0,1,500.1,128.34Z"/><path d="M543.93,168a20.19,20.19,0,0,1-19.7-19.81c0-10.79,9.46-20.11,20.16-19.84s19.63,9.52,19.45,20.06S554.5,168.07,543.93,168Z"/><path d="M588.13,128.34a20.2,20.2,0,0,1,19.66,19.85c0,10.81-9.51,20.11-20.2,19.8s-19.62-9.56-19.41-20.1S577.57,128.23,588.13,128.34Z"/><path d="M412.29,172.34A20.19,20.19,0,0,1,432,192.13c0,10.8-9.46,20.13-20.16,19.85s-19.63-9.51-19.45-20S401.72,172.26,412.29,172.34Z"/><path d="M519.9,192c.13,10.56-8.86,19.77-19.51,20s-20.17-9.13-20.11-19.9a19.81,19.81,0,0,1,39.62-.1Z"/><path d="M432,235.94c.16,10.55-8.82,19.78-19.48,20s-20.17-9.08-20.13-19.87a20.18,20.18,0,0,1,19.72-19.78C422.69,216.26,431.84,225.28,432,235.94Z"/><path d="M476,236.3A20.22,20.22,0,0,1,456.11,256c-10.8,0-20.09-9.53-19.78-20.23s9.55-19.64,20.09-19.42S476.07,225.74,476,236.3Z"/><path d="M563.84,236.16A20.2,20.2,0,0,1,544.15,256c-10.75.08-20.12-9.37-19.92-20.09s9.38-19.67,19.94-19.56A20.19,20.19,0,0,1,563.84,236.16Z"/><path d="M587.84,256a20.21,20.21,0,0,1-19.66-19.85c0-10.81,9.51-20.11,20.2-19.8s19.62,9.55,19.41,20.09S598.39,256.09,587.84,256Z"/><path d="M456.15,260.32A20.19,20.19,0,0,1,476,280c.09,10.75-9.36,20.14-20.07,19.94s-19.65-9.4-19.55-20A20.2,20.2,0,0,1,456.15,260.32Z"/><path d="M519.9,280.21A20.21,20.21,0,0,1,500.15,300c-10.77,0-20.11-9.43-19.87-20.14s9.44-19.65,20-19.51A20.21,20.21,0,0,1,519.9,280.21Z"/><path d="M563.84,280.24A20.19,20.19,0,0,1,544.06,300c-10.78,0-20.1-9.47-19.83-20.18s9.5-19.64,20-19.47A20.2,20.2,0,0,1,563.84,280.24Z"/><path d="M432,323.91c.17,10.53-8.79,19.78-19.46,20s-20.17-9-20.15-19.85a20.18,20.18,0,0,1,19.7-19.8C422.66,304.23,431.82,313.25,432,323.91Z"/><path d="M500.28,304.31A20.21,20.21,0,0,1,519.9,324.2c-.06,10.82-9.56,20.1-20.25,19.76s-19.61-9.6-19.37-20.14S489.72,304.17,500.28,304.31Z"/><path d="M588.16,304.31a20.2,20.2,0,0,1,19.63,19.88c0,10.82-9.53,20.1-20.23,19.77s-19.61-9.58-19.38-20.13S577.61,304.18,588.16,304.31Z"/><path d="M80.41,411.92c.15,10.55-8.82,19.77-19.48,20s-20.17-9.09-20.13-19.87a20.19,20.19,0,0,1,19.73-19.78A20.21,20.21,0,0,1,80.41,411.92Z"/><path d="M124.36,412.27a20.19,20.19,0,0,1-19.84,19.67c-10.8,0-20.09-9.52-19.77-20.23s9.55-19.63,20.08-19.42S124.48,401.71,124.36,412.27Z"/><path d="M168.31,412.12a20.19,20.19,0,0,1-19.69,19.82c-10.74.1-20.12-9.35-19.93-20.08s9.37-19.66,19.94-19.57A20.21,20.21,0,0,1,168.31,412.12Z"/><path d="M192.43,392.29A20.21,20.21,0,0,1,212.26,412c.11,10.75-9.32,20.15-20,20a19.83,19.83,0,0,1,.21-39.65Z"/><path d="M344.1,412.29a20.19,20.19,0,0,1-19.85,19.65c-10.81,0-20.09-9.54-19.76-20.24s9.56-19.63,20.1-19.41S344.23,401.73,344.1,412.29Z"/><path d="M432,412.3a20.21,20.21,0,0,1-19.87,19.64c-10.81-.05-20.08-9.56-19.74-20.26s9.58-19.62,20.11-19.39S432.14,401.75,432,412.3Z"/><path d="M519.9,411.87c.18,10.53-8.77,19.78-19.44,20.07s-20.18-9-20.18-19.82A20.2,20.2,0,0,1,500,392.29C510.53,392.2,519.7,401.21,519.9,411.87Z"/><path d="M544.28,431.94c-10.52.19-19.76-8.78-20-19.45s9-20.2,19.81-20.2A20.19,20.19,0,0,1,563.84,412C563.94,422.57,554.93,431.75,544.28,431.94Z"/><path d="M588.13,431.94c-10.56.12-19.74-8.89-20-19.55s9.15-20.18,19.91-20.1a19.83,19.83,0,0,1,0,39.65Z"/><path d="M631.83,431.94a20.19,20.19,0,0,1-19.7-19.8c0-10.8,9.46-20.12,20.15-19.85s19.64,9.52,19.46,20.06S642.4,432,631.83,431.94Z"/><path d="M783.59,412.27a20.21,20.21,0,0,1-19.84,19.67c-10.8,0-20.09-9.52-19.78-20.22s9.55-19.64,20.08-19.43S783.7,401.7,783.59,412.27Z"/><path d="M827.53,412.09a20.19,20.19,0,0,1-19.66,19.85c-10.74.12-20.13-9.32-20-20.05s9.34-19.67,19.91-19.6A20.19,20.19,0,0,1,827.53,412.09Z"/><path d="M871.48,411.88c.19,10.53-8.78,19.78-19.44,20.06s-20.18-9-20.17-19.83a20.2,20.2,0,0,1,19.69-19.82C862.13,392.21,871.3,401.22,871.48,411.88Z"/><path d="M959.38,412c.09,10.57-8.92,19.75-19.57,19.93s-20.15-9.21-20-20a19.81,19.81,0,0,1,39.61,0Z"/><path d="M124.36,456.26a20.21,20.21,0,0,1-19.84,19.68c-10.79,0-20.09-9.53-19.77-20.23s9.55-19.64,20.08-19.42S124.48,445.7,124.36,456.26Z"/><path d="M212.26,455.91c.15,10.55-8.83,19.77-19.49,20s-20.17-9.1-20.13-19.88a19.81,19.81,0,0,1,39.62-.15Z"/><path d="M236.4,475.94a20.21,20.21,0,0,1-19.81-19.71c-.1-10.75,9.34-20.14,20.06-19.94s19.65,9.37,19.55,19.94A20.19,20.19,0,0,1,236.4,475.94Z"/><path d="M432,456.34c-.18,10.66-9.35,19.68-19.91,19.6-10.82-.09-20.07-9.63-19.7-20.31S402,436,412.54,436.29,432.17,445.8,432,456.34Z"/><path d="M456.29,436.29A20.19,20.19,0,0,1,476,456.14c0,10.81-9.52,20.11-20.21,19.8s-19.62-9.57-19.41-20.11S445.74,436.17,456.29,436.29Z"/><path d="M651.74,456.34c-.18,10.66-9.34,19.68-19.91,19.6-10.82-.09-20.07-9.63-19.7-20.31s9.63-19.62,20.16-19.34S651.92,445.8,651.74,456.34Z"/><path d="M675.86,436.29A20.19,20.19,0,0,1,695.69,456c.11,10.75-9.31,20.15-20,20S656,466.58,656.08,456A20.18,20.18,0,0,1,675.86,436.29Z"/><path d="M739.64,456.19a20.21,20.21,0,0,1-19.77,19.75c-10.78,0-20.11-9.45-19.85-20.17s9.48-19.64,20-19.48A20.21,20.21,0,0,1,739.64,456.19Z"/><path d="M783.59,456A20.23,20.23,0,0,1,764,475.94c-10.73.16-20.15-9.25-20-20a19.81,19.81,0,0,1,39.62.09Z"/><path d="M808.45,436.31c10.8.56,19.53,9.91,19.07,20.4-.48,11-10.17,19.93-20.77,19.19-10.85-.76-19.44-10.19-18.8-20.64C788.61,444.42,798,435.76,808.45,436.31Z"/><path d="M852.4,436.31c10.8.56,19.53,9.91,19.07,20.4-.48,11-10.17,19.93-20.77,19.19-10.85-.76-19.44-10.19-18.8-20.64C832.56,444.42,841.94,435.76,852.4,436.31Z"/><path d="M915.43,456.08a20.21,20.21,0,0,1-19.65,19.86c-10.74.12-20.13-9.32-20-20.05a19.81,19.81,0,0,1,39.61.19Z"/><path d="M939.71,436.29a20.19,20.19,0,0,1,19.67,19.83c0,10.81-9.5,20.12-20.2,19.82s-19.62-9.56-19.41-20.1S929.15,436.18,939.71,436.29Z"/><path d="M80.41,500.07a20.21,20.21,0,0,1-19.65,19.86c-10.74.12-20.13-9.31-20-20s9.32-19.67,19.9-19.6A20.19,20.19,0,0,1,80.41,500.07Z"/><path d="M324.27,519.93a20.2,20.2,0,0,1-19.78-19.73c-.08-10.76,9.37-20.14,20.08-19.92s19.65,9.4,19.53,20A20.2,20.2,0,0,1,324.27,519.93Z"/><path d="M388.05,500.29c-.15,10.65-9.29,19.69-19.87,19.64-10.81,0-20.08-9.57-19.74-20.26S358,480,368.55,480.28,388.19,489.73,388.05,500.29Z"/><path d="M432,499.86c.18,10.54-8.78,19.79-19.45,20.07s-20.17-9-20.16-19.84a20.18,20.18,0,0,1,19.69-19.81C422.64,480.19,431.81,489.2,432,499.86Z"/><path d="M456.27,519.93c-10.56.1-19.74-8.92-19.94-19.58s9.18-20.16,19.93-20.07a19.83,19.83,0,0,1,0,39.65Z"/><path d="M563.84,500.17a20.19,20.19,0,0,1-19.75,19.76c-10.77,0-20.11-9.43-19.86-20.15s9.46-19.65,20-19.5A20.2,20.2,0,0,1,563.84,500.17Z"/><path d="M651.74,500a20.21,20.21,0,0,1-19.6,19.91c-10.73.16-20.14-9.25-20-20a19.81,19.81,0,0,1,39.61.09Z"/><path d="M808,480.28c10.65.17,19.67,9.35,19.58,19.93-.08,10.83-9.61,20.09-20.28,19.71s-19.6-9.63-19.33-20.17S797.43,480.1,808,480.28Z"/><path d="M915.43,500.16a20.2,20.2,0,0,1-19.73,19.77c-10.77.05-20.12-9.42-19.88-20.13s9.43-19.66,20-19.52A20.2,20.2,0,0,1,915.43,500.16Z"/><path d="M939.6,519.93a20.19,20.19,0,0,1-19.83-19.68c-.12-10.74,9.31-20.15,20-20a19.83,19.83,0,0,1-.2,39.65Z"/><path d="M80.41,544.08a20.21,20.21,0,0,1-19.67,19.84C50,564,40.61,554.58,40.8,543.85s9.35-19.66,19.91-19.58A20.19,20.19,0,0,1,80.41,544.08Z"/><path d="M148.41,524.27c10.57-.07,19.73,9,19.9,19.61s-9.23,20.16-20,20a19.83,19.83,0,0,1,.07-39.65Z"/><path d="M300.15,544.24a20.2,20.2,0,0,1-19.83,19.68c-10.8,0-20.09-9.53-19.78-20.23s9.55-19.63,20.08-19.42S300.27,533.68,300.15,544.24Z"/><path d="M368.15,524.27c10.58-.07,19.73,9,19.9,19.61s-9.23,20.16-20,20a19.83,19.83,0,0,1,.07-39.65Z"/><path d="M543.9,563.92a20.21,20.21,0,0,1-19.67-19.84c0-10.8,9.5-20.11,20.19-19.81s19.62,9.54,19.42,20.08S554.46,564,543.9,563.92Z"/><path d="M607.77,544.84c-.57,10.8-9.92,19.54-20.4,19.07-11-.5-19.91-10.2-19.16-20.81.77-10.86,10.21-19.46,20.64-18.8C599.69,525,608.33,534.36,607.77,544.84Z"/><path d="M739.64,544.33c-.19,10.66-9.36,19.68-19.92,19.59-10.82-.09-20.07-9.63-19.69-20.31s9.63-19.62,20.16-19.34S739.82,533.79,739.64,544.33Z"/><path d="M827.53,544.32c-.17,10.66-9.34,19.68-19.91,19.6-10.82-.09-20.07-9.62-19.69-20.31s9.62-19.61,20.15-19.34S827.71,533.79,827.53,544.32Z"/><path d="M915.43,544.22a20.19,20.19,0,0,1-19.8,19.7c-10.79,0-20.1-9.49-19.81-20.2s9.52-19.64,20-19.45S915.53,533.64,915.43,544.22Z"/><path d="M80.41,588.21a20.2,20.2,0,0,1-19.8,19.7c-10.79,0-20.1-9.49-19.81-20.2s9.52-19.64,20.05-19.45S80.51,577.63,80.41,588.21Z"/><path d="M212.26,588.21a20.2,20.2,0,0,1-19.81,19.7c-10.79,0-20.1-9.49-19.81-20.2s9.53-19.64,20.05-19.45A20.22,20.22,0,0,1,212.26,588.21Z"/><path d="M256.2,588.24a20.2,20.2,0,0,1-19.83,19.67c-10.8,0-20.09-9.53-19.78-20.23s9.55-19.63,20.08-19.42S256.32,577.67,256.2,588.24Z"/><path d="M280.48,568.26a20.2,20.2,0,0,1,19.67,19.84c0,10.81-9.5,20.11-20.19,19.81s-19.62-9.55-19.42-20.09S269.92,568.16,280.48,568.26Z"/><path d="M324.48,568.26a20.21,20.21,0,0,1,19.62,19.89c-.05,10.82-9.56,20.1-20.24,19.76s-19.61-9.59-19.37-20.14S313.92,568.12,324.48,568.26Z"/><path d="M368.25,568.26A20.19,20.19,0,0,1,388.05,588c.09,10.76-9.36,20.15-20.07,19.94s-19.65-9.4-19.54-20A20.19,20.19,0,0,1,368.25,568.26Z"/><path d="M412.19,607.91a20.19,20.19,0,0,1-19.8-19.71c-.1-10.75,9.34-20.14,20.06-19.94s19.65,9.39,19.55,20A20.2,20.2,0,0,1,412.19,607.91Z"/><path d="M544.27,607.91c-10.52.18-19.76-8.79-20-19.47s9-20.19,19.82-20.18A20.19,20.19,0,0,1,563.84,588C563.93,598.55,554.92,607.73,544.27,607.91Z"/><path d="M631.88,607.91a20.19,20.19,0,0,1-19.75-19.76c0-10.78,9.4-20.13,20.11-19.89s19.64,9.45,19.5,20A20.2,20.2,0,0,1,631.88,607.91Z"/><path d="M695.69,588.22a20.21,20.21,0,0,1-19.82,19.69c-10.79,0-20.09-9.5-19.79-20.21s9.53-19.64,20.06-19.44S695.79,577.65,695.69,588.22Z"/><path d="M783.59,588.17a20.2,20.2,0,0,1-19.77,19.74c-10.78,0-20.11-9.44-19.85-20.16s9.48-19.65,20-19.49A20.21,20.21,0,0,1,783.59,588.17Z"/><path d="M827.53,588a20.21,20.21,0,0,1-19.61,19.89c-10.73.15-20.14-9.26-20-20a19.81,19.81,0,0,1,39.61.12Z"/><path d="M939.68,568.26a20.19,20.19,0,0,1,19.7,19.81c0,10.8-9.47,20.12-20.17,19.84s-19.62-9.53-19.44-20.06S929.11,568.18,939.68,568.26Z"/><path d="M412.42,651.9c-10.53.18-19.76-8.8-20-19.47s9-20.19,19.82-20.18A20.2,20.2,0,0,1,432,632C432.08,642.55,423.06,651.73,412.42,651.9Z"/><path d="M456.07,612.25A20.21,20.21,0,0,1,476,631.89c.15,10.74-9.26,20.16-20,20a19.83,19.83,0,0,1,.11-39.65Z"/><path d="M519.9,632.06a20.21,20.21,0,0,1-19.67,19.84c-10.75.11-20.13-9.33-20-20.06s9.35-19.67,19.92-19.59A20.2,20.2,0,0,1,519.9,632.06Z"/><path d="M563.84,632a20.2,20.2,0,0,1-19.61,19.89c-10.73.16-20.14-9.26-20-20a19.81,19.81,0,0,1,39.61.11Z"/><path d="M588,651.9a20.19,20.19,0,0,1-19.8-19.71c-.09-10.75,9.35-20.14,20.06-19.94s19.65,9.39,19.55,20A20.19,20.19,0,0,1,588,651.9Z"/><path d="M631.83,651.9a20.19,20.19,0,0,1-19.7-19.8c0-10.8,9.46-20.12,20.16-19.85s19.63,9.52,19.45,20.06S642.4,652,631.83,651.9Z"/><path d="M675.78,651.9a20.18,20.18,0,0,1-19.7-19.8c0-10.8,9.46-20.12,20.16-19.85s19.63,9.52,19.45,20.06S686.35,652,675.78,651.9Z"/><path d="M763.67,651.9A20.19,20.19,0,0,1,744,632.1c0-10.8,9.46-20.12,20.16-19.85s19.63,9.52,19.46,20.06S774.24,652,763.67,651.9Z"/><path d="M412.43,40.36c10.66.19,19.66,9.37,19.57,19.94-.1,10.84-9.63,20.09-20.3,19.7s-19.6-9.65-19.31-20.19S401.91,40.17,412.43,40.36Z"/><path d="M456.29,656.25A20.21,20.21,0,0,1,476,676.09c0,10.81-9.51,20.11-20.21,19.8s-19.61-9.55-19.41-20.09S445.73,656.13,456.29,656.25Z"/><path d="M632.16,656.25a20.2,20.2,0,0,1,19.58,19.92c-.08,10.83-9.61,20.09-20.28,19.72s-19.6-9.64-19.33-20.18S621.63,656.07,632.16,656.25Z"/><path d="M763.94,695.89c-10.55.13-19.75-8.87-20-19.54s9.14-20.17,19.9-20.1a19.82,19.82,0,0,1,.07,39.64Z"/><path d="M543.81,40.36c10.52-.18,19.76,8.79,20,19.47S554.8,80,544,80a20.2,20.2,0,0,1-19.79-19.72A20.21,20.21,0,0,1,543.81,40.36Z"/><path d="M476,719.82c.18,10.54-8.78,19.78-19.45,20.07s-20.18-9-20.17-19.84A20.19,20.19,0,0,1,456,700.24C466.59,700.15,475.76,709.16,476,719.82Z"/><path d="M563.84,720.23A20.21,20.21,0,0,1,544,739.89c-10.8,0-20.08-9.55-19.76-20.25s9.56-19.63,20.1-19.4S564,709.67,563.84,720.23Z"/><path d="M588,700.24a20.18,20.18,0,0,1,19.82,19.68c.11,10.75-9.32,20.15-20,20s-19.66-9.36-19.57-19.94A20.19,20.19,0,0,1,588,700.24Z"/><path d="M719.69,739.89A20.21,20.21,0,0,1,700,720.05c0-10.81,9.5-20.11,20.19-19.81s19.63,9.54,19.43,20.08S730.25,740,719.69,739.89Z"/><path d="M763.89,700.24a20.19,20.19,0,0,1,19.7,19.81c0,10.8-9.47,20.12-20.17,19.84s-19.63-9.53-19.45-20.07S753.32,700.15,763.89,700.24Z"/><path d="M827.53,720.07a20.2,20.2,0,0,1-19.69,19.82c-10.75.08-20.12-9.37-19.92-20.09s9.38-19.67,19.94-19.56A20.19,20.19,0,0,1,827.53,720.07Z"/><path d="M871.48,720a20.21,20.21,0,0,1-19.65,19.86c-10.73.12-20.13-9.31-20-20s9.32-19.67,19.9-19.6A20.18,20.18,0,0,1,871.48,720Z"/><path d="M915.43,720a20.21,20.21,0,0,1-19.6,19.91c-10.73.16-20.14-9.25-20-20a19.81,19.81,0,0,1,39.61.09Z"/><path d="M475.93,104.92c-.58,10.8-9.93,19.54-20.41,19.07-11-.5-19.9-10.2-19.15-20.81.77-10.86,10.2-19.45,20.63-18.8C467.84,85.06,476.49,94.44,475.93,104.92Z"/><path d="M519.9,763.88c.13,10.55-8.86,19.77-19.51,20s-20.17-9.13-20.11-19.9a19.81,19.81,0,0,1,39.62-.1Z"/><path d="M544.26,783.88c-10.53.17-19.76-8.8-20-19.48s9-20.19,19.83-20.17a19.83,19.83,0,0,1,.2,39.65Z"/><path d="M587.75,783.88c-10.65-.19-19.66-9.37-19.57-19.94.09-10.83,9.62-20.08,20.29-19.71s19.6,9.64,19.32,20.18S598.27,784.06,587.75,783.88Z"/><path d="M783.59,763.93c.09,10.57-8.92,19.76-19.57,20s-20.15-9.21-20-20a19.81,19.81,0,0,1,39.62,0Z"/><path d="M851.44,783.88c-10.65-.19-19.66-9.37-19.57-19.94.09-10.83,9.62-20.08,20.29-19.71s19.6,9.64,19.32,20.18S862,784.06,851.44,783.88Z"/><path d="M959.38,763.81c.18,10.54-8.78,19.79-19.44,20.07s-20.18-9-20.17-19.84a20.19,20.19,0,0,1,19.69-19.81C950,744.14,959.19,753.15,959.38,763.81Z"/><path d="M412.3,827.87c-10.57.08-19.74-8.94-19.91-19.6s9.2-20.16,19.94-20a19.83,19.83,0,0,1,0,39.65Z"/><path d="M563.84,808a20.19,20.19,0,0,1-19.66,19.85c-10.74.12-20.13-9.32-19.95-20s9.33-19.68,19.91-19.6A20.19,20.19,0,0,1,563.84,808Z"/><path d="M588.18,827.87c-10.53.15-19.75-8.84-20-19.5s9.08-20.19,19.86-20.15a19.83,19.83,0,0,1,.14,39.65Z"/><path d="M675.84,788.22a20.21,20.21,0,0,1,19.85,19.66c.13,10.75-9.29,20.15-20,20a19.83,19.83,0,0,1,.17-39.65Z"/><path d="M720,827.87C709.4,828,700.22,819,700,808.29s9.18-20.16,19.93-20.07a19.83,19.83,0,0,1,0,39.65Z"/><path d="M412.29,832.21A20.2,20.2,0,0,1,432,852c0,10.8-9.46,20.12-20.16,19.85s-19.63-9.51-19.45-20.05S401.72,832.14,412.29,832.21Z"/><path d="M456.28,832.21A20.21,20.21,0,0,1,476,852.06c0,10.8-9.51,20.11-20.2,19.8s-19.62-9.55-19.42-20.09S445.72,832.1,456.28,832.21Z"/><path d="M519.9,852.09a20.2,20.2,0,0,1-19.74,19.77c-10.76.06-20.11-9.41-19.88-20.13s9.44-19.65,20-19.52A20.21,20.21,0,0,1,519.9,852.09Z"/><path d="M563.84,852.23A20.2,20.2,0,0,1,544,871.86c-10.81-.05-20.08-9.57-19.74-20.26s9.59-19.63,20.12-19.39S564,841.67,563.84,852.23Z"/><path d="M588.17,832.21a20.21,20.21,0,0,1,19.62,19.89c0,10.82-9.56,20.1-20.24,19.76s-19.61-9.59-19.37-20.14S577.62,832.07,588.17,832.21Z"/><path d="M695.69,851.9c.1,10.57-8.9,19.76-19.55,20s-20.15-9.18-20.06-19.94a19.81,19.81,0,0,1,39.61,0Z"/><path d="M719.42,871.86c-10.7-.32-19.62-9.57-19.4-20.11.23-10.86,9.84-20,20.47-19.52s19.55,9.84,19.14,20.34C739.21,863.32,729.93,872.18,719.42,871.86Z"/><path d="M871.48,852.25c-.17,10.66-9.33,19.69-19.9,19.61-10.81-.07-20.07-9.61-19.71-20.29S841.49,832,852,832.21,871.65,841.71,871.48,852.25Z"/><path d="M432,895.78c.19,10.54-8.77,19.79-19.44,20.07s-20.18-9-20.17-19.82a20.18,20.18,0,0,1,19.68-19.82C422.63,876.11,431.81,885.12,432,895.78Z"/><path d="M456.38,876.21A20.21,20.21,0,0,1,476,896.15c-.1,10.83-9.63,20.08-20.3,19.7s-19.6-9.65-19.32-20.19S445.86,876,456.38,876.21Z"/><path d="M519.9,896.21c-.15,10.65-9.29,19.69-19.87,19.64-10.81,0-20.08-9.55-19.75-20.25s9.58-19.63,20.11-19.39S520,885.66,519.9,896.21Z"/><path d="M544,876.21a20.19,20.19,0,0,1,19.82,19.67c.12,10.76-9.31,20.15-20,20a19.82,19.82,0,0,1,.21-39.64Z"/><path d="M651.74,896a20.2,20.2,0,0,1-19.61,19.89c-10.73.16-20.14-9.26-20-20a19.81,19.81,0,0,1,39.61.11Z"/><path d="M676,915.85c-10.56.12-19.75-8.89-19.95-19.55s9.15-20.18,19.91-20.09a19.82,19.82,0,0,1,0,39.64Z"/><path d="M739.64,896.09a20.19,20.19,0,0,1-19.75,19.76c-10.77,0-20.11-9.42-19.87-20.14s9.46-19.65,20-19.5A20.2,20.2,0,0,1,739.64,896.09Z"/><path d="M783.59,895.82c.16,10.54-8.82,19.78-19.48,20S743.94,906.77,744,896a20.19,20.19,0,0,1,19.72-19.78C774.27,876.14,783.42,885.16,783.59,895.82Z"/><path d="M959.38,895.88c.11,10.57-8.89,19.77-19.54,20s-20.16-9.17-20.07-19.93a19.81,19.81,0,0,1,39.61,0Z"/><path d="M412.07,920.2c10.56-.1,19.74,8.91,19.93,19.57s-9.19,20.18-19.93,20.08a19.83,19.83,0,0,1,0-39.65Z"/><path d="M519.9,940a20.22,20.22,0,0,1-19.69,19.83c-10.74.09-20.12-9.36-19.93-20.08s9.37-19.67,19.93-19.57A20.2,20.2,0,0,1,519.9,940Z"/><path d="M544.76,920.22c10.8.56,19.53,9.91,19.07,20.4-.48,11-10.17,19.93-20.77,19.19-10.85-.76-19.44-10.19-18.8-20.64C524.92,928.33,534.3,919.67,544.76,920.22Z"/><path d="M588.39,920.2c10.71.32,19.62,9.56,19.4,20.1-.22,10.87-9.83,20-20.46,19.53-10.78-.51-19.55-9.84-19.14-20.34C568.6,928.75,577.89,919.88,588.39,920.2Z"/><path d="M651.74,939.88c.11,10.56-8.89,19.76-19.54,20s-20.16-9.18-20.07-19.94a19.81,19.81,0,0,1,39.61,0Z"/><path d="M695.69,940.13a20.2,20.2,0,0,1-19.79,19.72c-10.78,0-20.1-9.47-19.82-20.19s9.5-19.64,20-19.46A20.21,20.21,0,0,1,695.69,940.13Z"/><path d="M783.59,940.17a20.22,20.22,0,0,1-19.84,19.68c-10.8,0-20.09-9.53-19.78-20.23s9.55-19.64,20.09-19.42S783.7,929.61,783.59,940.17Z"/><path d="M807.5,959.85a20.22,20.22,0,0,1-19.58-19.94c.09-10.82,9.61-20.08,20.28-19.71s19.61,9.63,19.33,20.17S818,960,807.5,959.85Z"/><path d="M871.48,940.19a20.21,20.21,0,0,1-19.85,19.66c-10.8,0-20.08-9.55-19.76-20.25S841.43,920,852,920.2,871.61,929.63,871.48,940.19Z"/><path class="cls-3" d="M192,302.14c-17.65,0-35.29.05-52.93,0-32.61-.11-56.36-23.85-56.43-56.49q-.11-53.49,0-107C82.66,106,106.41,82.26,139,82.19q53.43-.1,106.86,0c32.61.07,56.36,23.85,56.42,56.49q.12,53.48,0,107c-.06,32.64-23.82,56.38-56.42,56.49C227.9,302.19,209.92,302.14,192,302.14Z"/><path class="cls-3" d="M807.64,82.18c17.81,0,35.62-.05,53.43,0,32.65.1,56.44,23.79,56.51,56.4q.12,53.47,0,107c-.06,32.68-23.76,56.5-56.33,56.57q-53.43.12-106.86,0c-32.66-.06-56.44-23.78-56.52-56.39q-.11-53.49,0-107c.06-32.69,23.76-56.46,56.34-56.57C772,82.13,789.83,82.18,807.64,82.18Z"/><path class="cls-3" d="M192.39,698.06c17.81,0,35.62,0,53.43,0,32.64.1,56.41,23.81,56.48,56.43q.12,53.47,0,107c-.06,32.68-23.78,56.48-56.36,56.55q-53.43.11-106.86,0c-32.64-.06-56.41-23.8-56.48-56.42q-.12-53.49,0-107c.07-32.67,23.78-56.43,56.37-56.54C156.77,698,174.58,698.06,192.39,698.06Z"/><path class="cls-2" d="M192.45,126.17c10.32,0,20.63,0,31,0,20.89.14,34.84,13.94,35,34.74s.11,41.65,0,62.47-14.08,34.65-35,34.74q-30.94.12-61.9,0c-21.08-.09-34.89-14-35-35.24q-.11-30.73,0-61.47c.07-21.42,13.93-35.16,35.45-35.24C172.15,126.14,182.3,126.17,192.45,126.17Z"/><path class="cls-2" d="M807.73,126.17c10.32,0,20.63,0,30.95,0,20.89.14,34.84,13.94,35,34.74s.11,41.65,0,62.47-14.08,34.65-35,34.74q-30.95.12-61.91,0c-21.07-.09-34.88-14-34.95-35.24q-.11-30.73,0-61.47c.07-21.42,13.93-35.16,35.45-35.24C787.42,126.14,797.58,126.17,807.73,126.17Z"/><path class="cls-2" d="M258.37,808.54c0,10.16.06,20.32,0,30.48-.13,20.92-13.92,34.88-34.7,35s-41.61.11-62.41,0-34.62-14.07-34.7-35q-.14-31,0-62c.08-21.1,14-34.92,35.19-35q30.7-.11,61.41,0c21.41.07,35.13,13.93,35.22,35.49C258.4,787.88,258.37,798.21,258.37,808.54Z"/></svg>